<svg xmlns="http://www.w3.org/2000/svg" viewBox="0 0 900 640" role="img" aria-label="City stay at dusk">
  <defs>
    <linearGradient id="sky3" x1="0" y1="0" x2="0" y2="1">
      <stop offset="0%" stop-color="#8ca1bd"/>
      <stop offset="55%" stop-color="#596982"/>
      <stop offset="100%" stop-color="#161920"/>
    </linearGradient>
  </defs>
  <rect width="900" height="640" fill="url(#sky3)"/>
  <rect y="458" width="900" height="182" fill="#121419"/>
  <g fill="#232730">
    <rect x="90" y="180" width="96" height="278"/>
    <rect x="198" y="142" width="122" height="316"/>
    <rect x="332" y="94" width="96" height="364"/>
    <rect x="446" y="166" width="118" height="292"/>
    <rect x="578" y="120" width="104" height="338"/>
    <rect x="698" y="78" width="126" height="380"/>
  </g>
  <g fill="#f2d399" opacity=".82">
    <rect x="116" y="206" width="16" height="18"/><rect x="146" y="206" width="16" height="18"/>
    <rect x="224" y="170" width="18" height="20"/><rect x="258" y="170" width="18" height="20"/><rect x="292" y="170" width="18" height="20"/>
    <rect x="356" y="122" width="16" height="18"/><rect x="388" y="122" width="16" height="18"/>
    <rect x="474" y="194" width="16" height="18"/><rect x="506" y="194" width="16" height="18"/><rect x="538" y="194" width="16" height="18"/>
    <rect x="610" y="148" width="16" height="18"/><rect x="642" y="148" width="16" height="18"/>
    <rect x="730" y="106" width="16" height="18"/><rect x="764" y="106" width="16" height="18"/><rect x="798" y="106" width="16" height="18"/>
  </g>
  <path d="M0 530c120-24 204-36 312-36 136 0 248 34 378 34 88 0 150-8 210-18v130H0z" fill="#0b0d11" opacity=".45"/>
</svg>
