<svg xmlns="http://www.w3.org/2000/svg" viewBox="0 0 900 640" role="img" aria-label="Forest retreat">
  <defs>
    <linearGradient id="sky2" x1="0" y1="0" x2="0" y2="1">
      <stop offset="0%" stop-color="#c9d8c7"/>
      <stop offset="50%" stop-color="#889b82"/>
      <stop offset="100%" stop-color="#1d221c"/>
    </linearGradient>
  </defs>
  <rect width="900" height="640" fill="url(#sky2)"/>
  <rect y="426" width="900" height="214" fill="#161a15"/>
  <g fill="#2b3729">
    <rect x="110" y="76" width="22" height="446" rx="11"/>
    <rect x="212" y="44" width="18" height="472" rx="9"/>
    <rect x="318" y="68" width="24" height="446" rx="12"/>
    <rect x="442" y="30" width="18" height="500" rx="9"/>
    <rect x="570" y="58" width="22" height="466" rx="11"/>
    <rect x="678" y="18" width="20" height="500" rx="10"/>
    <rect x="782" y="64" width="18" height="448" rx="9"/>
  </g>
  <g fill="#6c7d62" opacity=".86">
    <circle cx="122" cy="122" r="70"/>
    <circle cx="224" cy="118" r="82"/>
    <circle cx="330" cy="144" r="78"/>
    <circle cx="452" cy="104" r="90"/>
    <circle cx="582" cy="130" r="84"/>
    <circle cx="690" cy="100" r="94"/>
    <circle cx="790" cy="138" r="70"/>
  </g>
  <path d="M266 468 450 288l180 180z" fill="#2b241f"/>
  <path d="M296 468 450 328l150 140z" fill="#d4bea0"/>
  <rect x="422" y="398" width="44" height="70" fill="#7a5b45"/>
  <path d="M0 522c102-30 196-44 308-44 120 0 232 22 350 22 84 0 166-12 242-32v172H0z" fill="#0f1310" opacity=".4"/>
</svg>
